<svg width="104" height="104" viewBox="0 0 104 104" fill="none" xmlns="http://www.w3.org/2000/svg">
<path d="M69.3334 69.3333L52 52L34.6667 69.3333" stroke="#9C7A00" stroke-width="5" stroke-linecap="round" stroke-linejoin="round"/>
<path d="M52 52V91" stroke="#9C7A00" stroke-width="5" stroke-linecap="round" stroke-linejoin="round"/>
<path d="M88.3567 79.69C92.5831 77.3858 95.9219 73.7398 97.8461 69.3274C99.7703 64.9149 100.17 59.9873 98.9829 55.3223C97.7955 50.6573 95.0885 46.5205 91.2889 43.5649C87.4894 40.6093 82.8138 39.0032 78 39H72.54C71.2284 33.9267 68.7837 29.2168 65.3898 25.2243C61.9959 21.2318 57.741 18.0607 52.9451 15.9493C48.1492 13.8379 42.9371 12.8412 37.7005 13.0342C32.464 13.2271 27.3393 14.6046 22.7118 17.0632C18.0843 19.5218 14.0743 22.9974 10.9834 27.2289C7.89245 31.4603 5.801 36.3373 4.86626 41.4934C3.93151 46.6494 4.1778 51.9503 5.5866 56.9975C6.9954 62.0446 9.53006 66.7067 13 70.6333" stroke="#9C7A00" stroke-width="5" stroke-linecap="round" stroke-linejoin="round"/>
<path d="M69.3334 69.3333L52 52L34.6667 69.3333" stroke="#9C7A00" stroke-width="5" stroke-linecap="round" stroke-linejoin="round"/>
</svg>
